<svg width="80" height="80" viewBox="0 0 80 80" fill="none" xmlns="http://www.w3.org/2000/svg">
<path d="M64 0H16C7.16344 0 0 7.16344 0 16V64C0 72.8366 7.16344 80 16 80H64C72.8366 80 80 72.8366 80 64V16C80 7.16344 72.8366 0 64 0Z" fill="white"/>
<path d="M39.0868 74.3529C34.3549 74.3996 29.6621 73.4926 25.2885 71.6858C20.9149 69.8791 16.9502 67.2097 13.6309 63.8371C6.26981 56.6112 2.63433 47.8079 2.83714 37.6676C2.75545 32.8189 3.68131 28.0061 5.5561 23.5338C7.43088 19.0614 10.2137 15.0271 13.7285 11.686C15.137 10.3256 16.6433 9.07037 18.2353 7.93034C18.4139 7.78734 18.6197 7.68224 18.8402 7.62148C19.0608 7.56072 19.2914 7.54556 19.518 7.57694C19.7445 7.60832 19.9624 7.68558 20.1581 7.80399C20.3538 7.9224 20.5233 8.07949 20.6563 8.26563C20.7893 8.45177 20.8828 8.66306 20.9314 8.88661C20.9799 9.11015 20.9824 9.34124 20.9386 9.56576C20.8948 9.79028 20.8056 10.0035 20.6766 10.1924C20.5476 10.3813 20.3814 10.542 20.1883 10.6645C18.7397 11.6991 17.3712 12.8415 16.0946 14.0821C12.8978 17.1225 10.3688 20.7949 8.66827 24.8658C6.96777 28.9366 6.13308 33.3168 6.21723 37.7277C6.07206 42.1499 6.86744 46.5524 8.55077 50.6442C10.2341 54.7359 12.767 58.4237 15.9819 61.4635C19.1174 64.6381 22.8804 67.1241 27.0306 68.7627C31.1809 70.4014 35.6272 71.1566 40.0857 70.9803H40.1308C49.7227 70.9803 57.8801 67.7505 64.3849 61.3659C67.5522 58.3104 70.0544 54.6336 71.7347 50.5661C73.415 46.4985 74.2371 42.1278 74.1496 37.7277C74.2897 33.3253 73.499 28.9429 71.8293 24.867C70.1596 20.7911 67.6484 17.1134 64.46 14.0746C63.2138 12.8393 61.8809 11.6946 60.4715 10.6494C60.1351 10.3786 59.9157 9.98889 59.8587 9.56083C59.8017 9.13278 59.9115 8.69921 60.1653 8.34985C60.4191 8.00049 60.7976 7.7621 61.2223 7.68401C61.647 7.60592 62.0854 7.69411 62.4469 7.93034C63.9878 9.07554 65.4438 10.3307 66.8035 11.686C74.097 18.9119 77.6949 27.6776 77.4921 37.7503C77.5804 42.5943 76.6672 47.4044 74.8098 51.8791C72.9525 56.3538 70.191 60.3967 66.6983 63.7544C59.5551 70.77 50.6166 74.3229 40.1233 74.3304L39.0868 74.3529Z" fill="url(#paint0_linear_2147_4553)"/>
<path d="M39.0865 75.8402C34.1626 75.8954 29.2781 74.9575 24.7249 73.0822C20.1718 71.207 16.0434 68.4331 12.5866 64.9263C9.02725 61.496 6.17656 57.3999 4.19644 52.8706C3.86575 52.0976 3.85566 51.225 4.16838 50.4446C4.4811 49.6642 5.09098 49.04 5.86393 48.7093C6.63687 48.3786 7.50954 48.3685 8.28993 48.6812C9.07032 48.994 9.69453 49.6039 10.0252 50.3768C11.6763 54.1474 14.0553 57.555 17.0258 60.4044C20.0027 63.4625 23.5931 65.856 27.561 67.4276C31.5288 68.9992 35.7844 69.7134 40.0479 69.5232H40.1305C49.4446 69.5232 57.0385 66.5187 63.333 60.3368C66.2569 57.5142 68.5951 54.1423 70.2134 50.4144C70.3684 50.0197 70.6009 49.6602 70.8973 49.357C71.1937 49.0538 71.548 48.8132 71.9391 48.6494C72.3301 48.4856 72.7501 48.4018 73.174 48.4032C73.598 48.4046 74.0175 48.491 74.4075 48.6573C74.7975 48.8237 75.1501 49.0666 75.4446 49.3717C75.739 49.6768 75.9693 50.0378 76.1217 50.4335C76.2741 50.8291 76.3456 51.2513 76.332 51.6751C76.3183 52.0989 76.2197 52.5156 76.0421 52.9006C74.1036 57.3925 71.2955 61.4565 67.7797 64.8586C60.351 72.1446 51.067 75.8477 40.1831 75.8552C39.8076 75.8402 39.447 75.8402 39.0865 75.8402Z" fill="url(#paint1_linear_2147_4553)"/>
<path d="M21.082 12.2494C23.4259 12.2494 25.3259 10.3493 25.3259 8.00549C25.3259 5.66165 23.4259 3.7616 21.082 3.7616C18.7382 3.7616 16.8381 5.66165 16.8381 8.00549C16.8381 10.3493 18.7382 12.2494 21.082 12.2494Z" fill="url(#paint2_linear_2147_4553)"/>
<path d="M59.2768 12.2494C61.6207 12.2494 63.5207 10.3493 63.5207 8.00549C63.5207 5.66165 61.6207 3.7616 59.2768 3.7616C56.933 3.7616 55.033 5.66165 55.033 8.00549C55.033 10.3493 56.933 12.2494 59.2768 12.2494Z" fill="url(#paint3_linear_2147_4553)"/>
<path fill-rule="evenodd" clip-rule="evenodd" d="M40.2285 26.1452C36.1949 21.0901 31.1173 19.2348 25.2059 22.2543C23.667 23.0517 22.3342 24.1952 21.3124 25.5951C20.2905 26.9949 19.6075 28.6129 19.317 30.3215C17.0111 41.5509 28.909 54.1098 40.2586 58.8194C51.6082 54.1098 63.5437 41.5434 61.2001 30.3215C60.91 28.6138 60.2278 26.9966 59.2074 25.5968C58.1869 24.1971 56.8559 23.053 55.3188 22.2543C49.3473 19.2348 44.2621 21.0901 40.2285 26.1452Z" fill="url(#paint4_linear_2147_4553)"/>
<defs>
<linearGradient id="paint0_linear_2147_4553" x1="40.1834" y1="3.43106" x2="40.1834" y2="131.867" gradientUnits="userSpaceOnUse">
<stop stop-color="#0090FF"/>
<stop offset="0.43" stop-color="#005094"/>
<stop offset="1" stop-color="#3A3870"/>
</linearGradient>
<linearGradient id="paint1_linear_2147_4553" x1="40.1231" y1="48.807" x2="40.1231" y2="75.7876" gradientUnits="userSpaceOnUse">
<stop stop-color="#0090FF"/>
<stop offset="0.43" stop-color="#005094"/>
<stop offset="1" stop-color="#3A3870"/>
</linearGradient>
<linearGradient id="paint2_linear_2147_4553" x1="21.082" y1="3.43861" x2="21.082" y2="131.867" gradientUnits="userSpaceOnUse">
<stop stop-color="#0090FF"/>
<stop offset="0.43" stop-color="#005094"/>
<stop offset="1" stop-color="#3A3870"/>
</linearGradient>
<linearGradient id="paint3_linear_2147_4553" x1="59.2769" y1="3.43861" x2="59.2769" y2="131.867" gradientUnits="userSpaceOnUse">
<stop stop-color="#0090FF"/>
<stop offset="0.43" stop-color="#005094"/>
<stop offset="1" stop-color="#3A3870"/>
</linearGradient>
<linearGradient id="paint4_linear_2147_4553" x1="40.2286" y1="22.0515" x2="40.2286" y2="58.3462" gradientUnits="userSpaceOnUse">
<stop stop-color="#FF152F"/>
<stop offset="0.58" stop-color="#CF1C31"/>
<stop offset="1" stop-color="#7F0003"/>
</linearGradient>
</defs>
</svg>
